<?xml version="1.0" encoding="UTF-8" standalone="no"?>
<svg
   xmlns:dc="http://purl.org/dc/elements/1.1/"
   xmlns:cc="http://creativecommons.org/ns#"
   xmlns:rdf="http://www.w3.org/1999/02/22-rdf-syntax-ns#"
   xmlns:svg="http://www.w3.org/2000/svg"
   xmlns="http://www.w3.org/2000/svg"
   version="1.1"
   id="svg22879"
   viewBox="0 0 299.99999 72.745962"
   height="20.530527mm"
   width="84.666664mm">
  <defs
     id="defs22881" />
  <metadata
     id="metadata22884">
    <rdf:RDF>
      <cc:Work
         rdf:about="">
        <dc:format>image/svg+xml</dc:format>
        <dc:type
           rdf:resource="http://purl.org/dc/dcmitype/StillImage" />
        <dc:title></dc:title>
      </cc:Work>
    </rdf:RDF>
  </metadata>
  <g
     transform="translate(724.28571,209.72504)"
     id="layer1">
    <g
       transform="matrix(1.566324,0,0,1.566324,-874.39804,-1587.262)"
       id="g22848">
      <path
         id="path5772"
         style="fill:#F2D05B;fill-opacity:1;fill-rule:nonzero;stroke:none"
         d="m 274.09734,925.91502 -164.98875,0 c -7.29875,0 -13.27125,-5.9725 -13.27125,-13.27125 l 0,-19.90125 c 0,-7.3 5.9725,-13.27125 13.27125,-13.27125 l 164.98875,0 c 7.3,0 13.27125,5.97125 13.27125,13.27125 l 0,19.90125 c 0,7.29875 -5.97125,13.27125 -13.27125,13.27125" />
      <path
         id="path5776"
         style="fill:#ffffff;fill-opacity:1;fill-rule:nonzero;stroke:none"
         d="m 143.70322,916.04239 c -3.26125,0.001 -6.45125,-10e-4 -9.6825,-0.002 -0.01,-0.27625 -0.0263,-0.4875 -0.0263,-0.7 -0.004,-2.0525 0.009,-4.10625 -0.01,-6.15875 -0.0187,-2.0525 -0.0662,-4.105 -0.10375,-6.15625 -0.0137,-0.77 -0.0475,-1.53875 -0.0525,-2.30875 -0.0112,-1.58125 -1.17125,-2.5525 -2.45875,-2.7275 -0.5925,-0.08 -1.18,-0.0562 -1.7575,0.12 -1.1725,0.355 -1.885,1.34375 -1.8875,2.5075 -10e-4,1.165 -0.0225,2.32875 -0.0337,3.49375 -0.0337,3.77 -0.0675,7.54 -0.1025,11.31 -0.001,0.17375 -0.0213,0.34875 -0.0325,0.525 -0.2225,0.1325 -0.44375,0.09 -0.65375,0.0913 -1.7175,0.002 -3.435,0 -5.1525,0 -1.125,-10e-4 -2.25,0 -3.375,-0.003 -0.195,0 -0.39,-0.007 -0.5575,-0.0113 -0.15,-0.22125 -0.1025,-0.425 -0.1025,-0.6175 -0.004,-1.44125 0.007,-2.8825 -0.003,-4.32375 -0.0175,-2.28875 -0.0437,-4.57875 -0.0725,-6.8675 -0.0138,-1.145 -0.0538,-2.28875 -0.065,-3.4325 -0.0188,-1.8225 -1.4025,-2.72125 -2.63875,-2.81875 -0.555,-0.0425 -1.10625,-0.0275 -1.6375,0.1525 -1.0225,0.34875 -1.655,1.03875 -1.8125,2.12625 -0.0312,0.21375 -0.0438,0.4325 -0.045,0.64875 -0.0337,3.5525 -0.0637,7.10625 -0.0962,10.65875 -0.0125,1.24375 -0.0275,2.48625 -0.0425,3.73 -0.004,0.215 -0.02,0.43 -0.0312,0.67625 -0.1225,0.0263 -0.23125,0.055 -0.34125,0.07 -0.0775,0.0113 -0.1575,0.006 -0.23625,0.006 -2.80375,-10e-4 -5.6075,-10e-4 -8.41,-0.004 -0.1375,0 -0.27375,-0.015 -0.44875,-0.025 -0.0212,-0.13125 -0.0625,-0.26125 -0.06,-0.39 0.0325,-1.73625 0.075,-3.4725 0.10875,-5.20875 0.0213,-1.145 0.0275,-2.29 0.0475,-3.43375 0.0238,-1.3025 0.0588,-2.605 0.0825,-3.9075 0.0187,-1.04625 0.03,-2.09125 0.0438,-3.1375 0.0175,-1.24625 0.0825,-2.4875 0.4,-3.69875 0.865,-3.305 2.895,-5.64375 5.96125,-7.09375 1.92,-0.90875 3.9675,-1.28375 6.0825,-1.33625 1.87375,-0.0475 3.69875,0.21125 5.4725,0.8225 0.78625,0.27 1.5425,0.60125 2.25625,1.0275 0.1525,0.0913 0.3075,0.17625 0.48625,0.2775 0.1125,-0.06 0.235,-0.11625 0.34875,-0.18625 1.72125,-1.03625 3.5975,-1.58875 5.5825,-1.8225 1.37875,-0.1625 2.76,-0.16625 4.13125,0.0163 2.76875,0.3675 5.26,1.37375 7.2875,3.3575 1.645,1.6075 2.66,3.555 3.0975,5.81 0.16125,0.835 0.22625,1.6775 0.23625,2.52875 0.02,1.75625 0.0725,3.5125 0.10375,5.26875 0.0525,2.96 0.0975,5.92 0.15,8.88 0.0112,0.5725 0.0437,1.14375 0.0625,1.71625 0.005,0.15375 -0.006,0.3075 -0.0125,0.55" />
      <path
         id="path5780"
         style="fill:#ffffff;fill-opacity:1;fill-rule:nonzero;stroke:none"
         d="m 219.58097,902.34964 c 0.12125,-2.575 -2.10375,-5.1225 -5.08875,-5.14 -3.01375,-0.0163 -5.19,2.53125 -5.18375,5.13625 0.005,2.4425 2.045,5.08125 5.1775,5.07875 2.81375,-10e-4 5.2,-2.425 5.095,-5.075 m 9.48375,10e-4 c -0.0362,4.34875 -1.7025,7.9775 -4.9425,10.84875 -2.35375,2.08625 -5.1425,3.26625 -8.28375,3.5775 -2.82,0.28 -5.50375,-0.1975 -8.0275,-1.4925 -2.5375,-1.3025 -4.53875,-3.1875 -5.995,-5.64375 -0.9575,-1.6125 -1.57625,-3.3475 -1.8275,-5.2075 -0.39125,-2.90625 -0.03,-5.70375 1.27125,-8.35125 1.7,-3.46125 4.3475,-5.91375 7.935,-7.3325 1.61125,-0.6375 3.2925,-0.92875 5.03,-0.94875 1.71375,-0.02 3.385,0.2 5.005,0.76 1.86625,0.645 3.57,1.585 5.0275,2.92625 2.44125,2.24625 4.025,4.98125 4.6075,8.26625 0.1525,0.85625 0.2175,1.7225 0.2,2.5975" />
      <path
         id="path5784"
         style="fill:#ffffff;fill-opacity:1;fill-rule:nonzero;stroke:none"
         d="m 256.24871,916.11502 c -0.16375,0.0188 -0.25875,0.0362 -0.35375,0.04 -1.67125,0.0525 -9.00375,0.015 -9.565,-0.0538 -0.0175,-0.11875 -0.0525,-0.2475 -0.0525,-0.3775 -0.006,-0.67125 0.002,-1.3425 -0.004,-2.01375 -0.0375,-3.73 -0.075,-7.46 -0.11625,-11.19 -0.007,-0.61125 -0.0175,-1.22375 -0.0487,-1.83375 -0.0575,-1.16125 -0.64375,-1.9675 -1.70875,-2.41 -0.85375,-0.355 -1.73375,-0.34125 -2.60625,-0.0562 -1.10375,0.35875 -1.78875,1.33 -1.79625,2.45 -0.0187,2.8025 -0.06,5.605 -0.0925,8.4075 -0.025,2.15125 -0.05,4.30125 -0.0762,6.4525 -0.002,0.17625 -0.0188,0.3525 -0.0288,0.515 -0.19125,0.16125 -0.3975,0.1025 -0.5875,0.1025 -1.835,0.004 -3.67125,10e-4 -5.5075,10e-4 -1.02625,0 -2.0525,-10e-4 -3.07875,-10e-4 -0.195,0 -0.39125,0 -0.61625,0 -0.03,-0.135 -0.0763,-0.24375 -0.0763,-0.3525 0,-0.5525 0.0138,-1.105 0.02,-1.6575 0.0175,-1.3225 0.03,-2.645 0.0513,-3.96625 0.0262,-1.6575 0.0613,-3.315 0.0913,-4.9725 0.0387,-2.15125 0.02,-4.305 0.13,-6.45125 0.22125,-4.37875 2.3025,-7.57875 6.26625,-9.505 1.56125,-0.75875 3.2275,-1.14375 4.9525,-1.30125 1.4625,-0.1325 2.9175,-0.0925 4.365,0.14 2.16,0.34625 4.1525,1.105 5.89,2.45875 2.14625,1.675 3.42625,3.88375 3.96875,6.53375 0.17,0.8325 0.24125,1.67625 0.25375,2.5275 0.0225,1.6175 0.0725,3.235 0.1025,4.8525 0.055,2.86125 0.10125,5.7225 0.155,8.58375 0.0163,0.82875 0.0462,1.65625 0.0688,2.485 0.004,0.17625 0,0.3525 0,0.5925" />
      <path
         id="path5788"
         style="fill:#ffffff;fill-opacity:1;fill-rule:nonzero;stroke:none"
         d="m 185.91046,916.08427 c -0.555,0.0825 -9.3,0.0875 -9.9225,0.0125 -0.015,-0.14125 -0.0425,-0.29125 -0.0437,-0.4425 -0.0112,-1.12375 -0.0137,-2.24875 -0.0238,-3.37375 -0.015,-1.7175 -0.0312,-3.43375 -0.0487,-5.15125 -0.0213,-2.09125 -0.0413,-4.18375 -0.07,-6.275 -0.02,-1.3975 -0.88625,-2.425 -2.2525,-2.73375 -0.75875,-0.17125 -1.49375,-0.11 -2.21,0.16 -1.145,0.43125 -1.68,1.46875 -1.67375,2.42 0.006,1.24375 -0.01,2.48625 -0.0238,3.73 -0.0362,3.25625 -0.0762,6.5125 -0.11375,9.7675 -0.006,0.47375 -0.004,0.9475 -0.01,1.42125 -0.002,0.15375 -0.0237,0.3075 -0.035,0.4575 -0.0837,0.0275 -0.1375,0.06 -0.19125,0.06 -3.19625,0.001 -6.39375,0 -9.62,-10e-4 -0.0262,-0.1225 -0.07,-0.2325 -0.07,-0.34125 0.01,-1.18375 0.0238,-2.36875 0.0438,-3.5525 0.0275,-1.6175 0.0612,-3.235 0.0925,-4.8525 0.0375,-1.9325 0.0763,-3.86625 0.11,-5.79875 0.0163,-0.9275 0.001,-1.85625 0.0412,-2.7825 0.0725,-1.695 0.455,-3.31625 1.255,-4.82375 1.15125,-2.17125 2.88125,-3.72625 5.10125,-4.75375 1.8725,-0.8675 3.85375,-1.2525 5.9075,-1.315 1.7475,-0.0538 3.47125,0.10375 5.15125,0.6075 2.69875,0.81 4.925,2.2825 6.47625,4.68 0.90375,1.3975 1.42625,2.935 1.6725,4.57625 0.1025,0.6875 0.115,1.37625 0.13,2.065 0.0475,2.11125 0.08,4.22125 0.12125,6.3325 0.0363,1.93375 0.0738,3.86625 0.11625,5.8 0.025,1.14375 0.0613,2.2875 0.09,3.43125 0.005,0.215 0,0.43 0,0.67625" />
      <path
         id="path5792"
         style="fill:#ffffff;fill-opacity:1;fill-rule:nonzero;stroke:none"
         d="m 280.10334,890.47964 c -1.21875,2.27 -2.46125,4.55625 -3.70375,6.84125 -0.0362,0.0663 -0.0937,0.12 -0.165,0.21 -0.1975,-0.11875 -0.38125,-0.2275 -0.5625,-0.33875 -1.4925,-0.90875 -3.0675,-1.61625 -4.77125,-2.0275 -0.755,-0.1825 -1.515,-0.255 -2.28875,-0.20125 -0.3225,0.0225 -0.6225,0.10625 -0.88,0.30875 -0.40875,0.3225 -0.45375,0.80875 -0.0875,1.1825 0.16375,0.16625 0.35625,0.32 0.56375,0.425 0.63125,0.3225 1.2675,0.64 1.91875,0.91875 0.9975,0.425 2.015,0.8 3.01375,1.22375 1.34625,0.57 2.64875,1.22625 3.83,2.10125 0.8325,0.61625 1.56625,1.3275 2.13375,2.19625 0.64875,0.99375 1.0125,2.08875 1.12875,3.2675 0.17875,1.81875 -0.0188,3.58375 -0.74125,5.275 -0.73,1.70875 -1.915,3.02 -3.4925,3.98125 -1.35125,0.8225 -2.82625,1.29 -4.38375,1.5275 -1.19375,0.18125 -2.39125,0.25375 -3.5975,0.18625 -4.165,-0.23 -7.955,-1.51875 -11.3125,-4.0225 -0.0463,-0.035 -0.0913,-0.0738 -0.135,-0.11375 -0.0137,-0.0125 -0.0225,-0.0325 -0.0537,-0.0825 0.18875,-0.47125 0.47875,-0.9125 0.73625,-1.37125 0.26125,-0.46375 0.52625,-0.92625 0.78875,-1.38875 0.2725,-0.48 0.545,-0.96125 0.8175,-1.44125 0.26375,-0.4625 0.52875,-0.925 0.7925,-1.3875 0.2625,-0.4625 0.52375,-0.92375 0.7925,-1.395 0.25625,0.0788 0.43375,0.24 0.625,0.37 1.41,0.9575 2.89625,1.765 4.515,2.3125 1.12625,0.3825 2.27875,0.63 3.4775,0.61 0.4,-0.006 0.78625,-0.0775 1.145,-0.25375 0.375,-0.185 0.54625,-0.48875 0.51625,-0.91375 -0.015,-0.21125 -0.085,-0.3925 -0.245,-0.51875 -0.23,-0.1825 -0.465,-0.37125 -0.725,-0.50375 -0.47375,-0.24125 -0.96125,-0.45875 -1.455,-0.65625 -1.2075,-0.485 -2.4275,-0.94125 -3.63125,-1.43375 -1.1725,-0.4775 -2.29375,-1.0575 -3.32625,-1.79375 -0.84125,-0.6 -1.58625,-1.3 -2.17375,-2.1575 -0.62375,-0.91125 -1.01375,-1.91875 -1.19,-3.0025 -0.25125,-1.54 -0.1775,-3.07125 0.24625,-4.575 0.68625,-2.43 2.195,-4.19875 4.40625,-5.38625 1.12125,-0.6025 2.32375,-0.96625 3.5725,-1.2025 1.38875,-0.26 2.79,-0.30125 4.18625,-0.19375 3.31875,0.25625 6.42,1.2175 9.24125,3.0175 0.1325,0.085 0.2625,0.175 0.39,0.2675 0.0288,0.02 0.04,0.065 0.0838,0.13875" />
      <path
         id="path5796"
         style="fill:#ffffff;fill-opacity:1;fill-rule:nonzero;stroke:none"
         d="m 188.75659,888.44902 c 3.23625,-0.0113 6.39,10e-4 9.5425,10e-4 0.095,0 0.18875,0.0225 0.27,0.0325 0.1325,0.2275 0.085,0.45 0.085,0.6625 0.002,3.0575 0,6.115 0,9.17375 -0.001,4.1025 0,8.20625 -0.004,12.30875 -0.001,1.12125 -0.02,2.2425 -0.0225,3.36375 -0.001,0.57125 0.0188,1.1425 0.0213,1.71375 0,0.1525 -0.0288,0.305 -0.0463,0.47875 -0.1225,0.0175 -0.21625,0.0425 -0.31,0.0437 -3.15375,0.01 -6.3075,0.006 -9.49375,0 -0.025,-0.14375 -0.0538,-0.25375 -0.0613,-0.36375 -0.01,-0.1375 -0.004,-0.27625 -0.004,-0.415 0.004,-8.74 0.006,-17.48 0.01,-26.22 0,-0.23375 0.007,-0.4675 0.0125,-0.78" />
      <path
         id="path5800"
         style="fill:#ffffff;fill-opacity:1;fill-rule:nonzero;stroke:none"
         d="m 156.67109,916.00989 c -0.155,0.0163 -0.24875,0.035 -0.34375,0.035 -3.11625,10e-4 -6.2325,0 -9.37375,-10e-4 -0.0288,-0.14 -0.0712,-0.25 -0.0712,-0.36 0.002,-2.2675 0.0125,-4.53625 0.0137,-6.805 0.001,-2.84125 -0.005,-5.68125 -0.004,-8.5225 0,-2.82 0.005,-5.64125 0.008,-8.46125 0.001,-0.9475 0.004,-1.895 0.006,-2.84125 0,-0.17625 0,-0.35125 0,-0.49875 0.23125,-0.1925 0.4575,-0.12125 0.665,-0.12125 2.15125,-0.005 4.30125,-0.002 6.4525,-0.002 0.71,0.001 1.42125,0 2.13125,0.005 0.15375,0 0.3075,0.0187 0.455,0.0287 0.0312,0.0838 0.0688,0.13625 0.0688,0.19 -0.001,9.09625 -0.004,18.19125 -0.008,27.355" />
      <path
         id="path5804"
         style="fill:#ffffff;fill-opacity:1;fill-rule:nonzero;stroke:none"
         d="m 281.20234,916.06814 c -0.1675,0.0763 -0.265,0.0388 -0.285,-0.11375 -0.0238,-0.1825 -0.0263,-0.36875 -0.1125,-0.55875 -0.055,0.20375 -0.105,0.41 -0.17,0.61 -0.0138,0.0438 -0.085,0.0925 -0.13125,0.095 -0.0462,10e-4 -0.11625,-0.0425 -0.13625,-0.085 -0.0425,-0.0875 -0.0538,-0.1875 -0.0838,-0.28 -0.0475,-0.145 -0.0475,-0.30875 -0.1875,-0.44875 -0.0188,0.2625 -0.0337,0.49625 -0.0562,0.72875 -0.004,0.0275 -0.0575,0.075 -0.0788,0.0713 -0.05,-0.0113 -0.13375,-0.0438 -0.13625,-0.0738 -0.04,-0.4875 -0.0675,-0.975 0.0163,-1.47875 0.135,0 0.2475,0 0.3975,0 0.0763,0.2725 0.1525,0.54625 0.25375,0.90625 0.0662,-0.2125 0.11125,-0.34 0.14625,-0.47 0.0337,-0.13125 0.0575,-0.265 0.0925,-0.425 0.16625,0 0.31125,0 0.4775,0 0.0462,0.53 0.0587,1.03375 -0.006,1.5225" />
      <path
         id="path5808"
         style="fill:#ffffff;fill-opacity:1;fill-rule:nonzero;stroke:none"
         d="m 278.96497,914.85589 c -0.1625,-0.0775 -0.26375,-0.12625 -0.38625,-0.185 0.0475,-0.0612 0.0788,-0.13875 0.11125,-0.13875 0.29,-0.01 0.58,-0.006 0.85875,-0.006 0.1175,0.2975 -0.2,0.18875 -0.2875,0.44625 -10e-4,0.16375 -0.002,0.45375 -0.007,0.745 -0.002,0.0963 -0.004,0.1975 -0.0288,0.28875 -0.0112,0.0387 -0.085,0.0862 -0.12625,0.0838 -0.04,-0.004 -0.1,-0.0625 -0.1075,-0.105 -0.0213,-0.11375 -0.0238,-0.2325 -0.025,-0.35 -0.004,-0.2525 -0.001,-0.50625 -0.001,-0.77875" />
    </g>
  </g>
</svg>
