<?xml version="1.0" standalone="no"?>
<!DOCTYPE svg PUBLIC "-//W3C//DTD SVG 20010904//EN"
 "http://www.w3.org/TR/2001/REC-SVG-20010904/DTD/svg10.dtd">
<svg version="1.0" xmlns="http://www.w3.org/2000/svg"
 width="256.000000pt" height="256.000000pt" viewBox="0 0 256.000000 256.000000"
 preserveAspectRatio="xMidYMid meet">
<metadata>
Created by potrace 1.11, written by Peter Selinger 2001-2013
</metadata>
<g transform="translate(0.000000,256.000000) scale(0.100000,-0.100000)"
fill="#000000" stroke="none">
<path d="M915 2545 c-71 -16 -144 -47 -200 -85 -72 -50 -88 -68 -88 -101 0
-60 52 -65 120 -12 51 38 128 77 178 89 25 6 20 0 -30 -38 -153 -114 -250
-281 -269 -464 -5 -47 -11 -63 -31 -77 -34 -26 -34 -73 0 -89 l25 -11 0 -274
c0 -151 -3 -272 -8 -269 -18 11 -70 -24 -88 -60 -17 -36 -18 -67 -18 -464 l0
-425 27 -59 c64 -138 135 -182 215 -130 29 19 92 117 92 143 0 25 -26 51 -51
51 -11 0 -37 11 -57 25 -20 14 -54 28 -74 31 -25 4 -38 12 -39 23 -1 9 -3 41
-5 71 l-4 55 20 -33 c51 -83 162 -169 262 -203 l48 -16 -34 -39 c-63 -74 -79
-131 -46 -164 19 -19 33 -20 202 -20 173 0 183 1 205 22 18 17 23 18 23 6 0
-24 30 -28 221 -28 160 0 177 2 193 19 24 26 12 85 -28 136 -17 22 -34 41 -38
43 -20 9 -4 32 27 41 93 26 197 104 260 197 l25 37 -3 -67 c-2 -36 -6 -68 -8
-70 -2 -2 -19 -6 -37 -9 -19 -3 -51 -17 -73 -31 -21 -14 -47 -26 -58 -26 -57
0 -61 -61 -10 -136 46 -68 100 -92 153 -70 44 19 70 51 107 131 l33 70 0 230
c-1 632 -1 633 -25 671 -13 21 -32 37 -52 42 l-32 8 -3 272 c-2 235 0 272 12
272 18 0 36 30 36 59 0 10 -11 28 -25 38 -20 14 -26 30 -30 78 -17 179 -130
370 -280 472 -44 30 -46 33 -20 27 50 -11 132 -51 181 -88 52 -40 83 -45 107
-18 25 27 21 50 -15 83 -131 120 -340 173 -518 132 -89 -20 -137 -22 -190 -6
-64 19 -214 23 -285 8z m-226 -2374 c-3 -7 -13 3 -23 21 l-19 33 23 -21 c12
-12 21 -27 19 -33z m1209 19 c-13 -20 -28 -27 -28 -12 0 10 22 32 32 32 5 0 3
-9 -4 -20z"/>
</g>
</svg>
